<?xml version="1.0" encoding="utf-8" standalone="no"?>
<!DOCTYPE svg PUBLIC "-//W3C//DTD SVG 1.1//EN"
  "http://www.w3.org/Graphics/SVG/1.1/DTD/svg11.dtd">
<svg xmlns:xlink="http://www.w3.org/1999/xlink" width="460.8pt" height="345.6pt" viewBox="0 0 460.8 345.6" xmlns="http://www.w3.org/2000/svg" version="1.1">
 <metadata>
  <rdf:RDF xmlns:dc="http://purl.org/dc/elements/1.1/" xmlns:cc="http://creativecommons.org/ns#" xmlns:rdf="http://www.w3.org/1999/02/22-rdf-syntax-ns#">
   <cc:Work>
    <dc:type rdf:resource="http://purl.org/dc/dcmitype/StillImage"/>
    <dc:date>2024-11-27T02:15:21.794130</dc:date>
    <dc:format>image/svg+xml</dc:format>
    <dc:creator>
     <cc:Agent>
      <dc:title>Matplotlib v3.7.1, https://matplotlib.org/</dc:title>
     </cc:Agent>
    </dc:creator>
   </cc:Work>
  </rdf:RDF>
 </metadata>
 <defs>
  <style type="text/css">*{stroke-linejoin: round; stroke-linecap: butt}</style>
 </defs>
 <g id="figure_1">
  <g id="patch_1">
   <path d="M 0 345.6 
L 460.8 345.6 
L 460.8 0 
L 0 0 
z
" style="fill: #ffffff"/>
  </g>
  <g id="axes_1">
   <g id="patch_2">
    <path d="M 57.6 307.584 
L 414.72 307.584 
L 414.72 41.472 
L 57.6 41.472 
z
" style="fill: #ffffff"/>
   </g>
   <g id="PolyCollection_1">
    <path d="M 73.832727 97.424845 
L 73.832727 95.534631 
L 77.112066 95.792747 
L 80.391405 95.844204 
L 83.670744 95.849679 
L 86.950083 95.824011 
L 90.229421 95.830154 
L 93.508761 95.861458 
L 96.788098 95.859715 
L 100.067438 95.861114 
L 103.346778 95.871697 
L 106.626115 95.882301 
L 109.905455 95.883639 
L 113.184795 95.891444 
L 116.464132 95.880597 
L 119.743469 95.873096 
L 123.022811 95.874069 
L 126.302149 95.870562 
L 129.581486 95.870602 
L 132.860828 95.868635 
L 136.140166 95.881631 
L 139.419503 95.879138 
L 142.698845 95.878408 
L 145.978182 95.877516 
L 149.25752 95.876421 
L 152.536862 95.875387 
L 155.816204 95.874393 
L 159.095537 95.873481 
L 162.374879 95.872711 
L 165.654221 95.872123 
L 168.933553 95.875427 
L 172.212895 95.875427 
L 175.492238 95.872285 
L 178.77157 95.871798 
L 182.050912 95.871636 
L 185.330245 95.873461 
L 188.609587 95.875204 
L 191.888929 95.880719 
L 195.168262 95.882605 
L 198.447604 95.884369 
L 201.726936 95.883983 
L 205.006278 95.883335 
L 208.285621 95.886984 
L 211.564953 95.888099 
L 214.844295 95.887248 
L 218.123637 95.894161 
L 221.40297 95.894364 
L 224.682312 95.894121 
L 227.961654 95.887795 
L 231.240996 95.89337 
L 234.520339 95.861661 
L 237.799681 95.867013 
L 241.079004 95.893452 
L 244.358346 95.833135 
L 247.637688 95.826626 
L 250.91703 95.824193 
L 254.196372 95.828046 
L 257.475695 95.806838 
L 260.755037 95.496373 
L 264.034379 92.486503 
L 267.313702 90.829945 
L 270.593044 90.545309 
L 273.872387 89.89271 
L 277.151729 82.439027 
L 280.431071 96.896336 
L 283.710413 115.813556 
L 286.989755 165.277095 
L 290.269097 193.343792 
L 293.54844 237.840202 
L 296.827762 259.98584 
L 300.107105 264.087377 
L 303.386447 264.087088 
L 306.665789 264.086817 
L 309.945131 264.086555 
L 313.224473 264.086299 
L 316.503815 264.086055 
L 319.783138 264.085822 
L 323.06248 264.085605 
L 326.341822 264.085393 
L 329.621165 264.085184 
L 332.900507 264.084979 
L 336.17983 264.084795 
L 339.459172 264.084595 
L 342.738514 264.08057 
L 346.017837 264.080411 
L 349.297179 264.080301 
L 352.576521 264.080246 
L 355.855863 264.080273 
L 359.135205 264.080363 
L 362.414548 264.080478 
L 365.69389 264.080642 
L 368.973232 264.080816 
L 372.252574 264.081012 
L 375.531897 264.081222 
L 378.811239 264.081602 
L 382.090581 264.089322 
L 385.369923 264.085442 
L 388.649266 264.085687 
L 391.928588 264.085938 
L 395.207931 264.043848 
L 398.487273 259.763924 
L 398.487273 268.097166 
L 398.487273 268.097166 
L 395.207931 265.687324 
L 391.928588 265.6644 
L 388.649266 265.664071 
L 385.369923 265.663761 
L 382.090581 265.661163 
L 378.811239 265.676282 
L 375.531897 265.676268 
L 372.252574 265.676023 
L 368.973232 265.675803 
L 365.69389 265.675626 
L 362.414548 265.675503 
L 359.135205 265.675406 
L 355.855863 265.675352 
L 352.576521 265.675327 
L 349.297179 265.675332 
L 346.017837 265.675405 
L 342.738514 265.675533 
L 339.459172 265.661844 
L 336.17983 265.662054 
L 332.900507 265.662287 
L 329.621165 265.662511 
L 326.341822 265.662746 
L 323.06248 265.663001 
L 319.783138 265.663272 
L 316.503815 265.663547 
L 313.224473 265.663842 
L 309.945131 265.664151 
L 306.665789 265.664476 
L 303.386447 265.664835 
L 300.107105 265.665225 
L 296.827762 269.100253 
L 293.54844 278.908957 
L 290.269097 273.224684 
L 286.989755 251.945202 
L 283.710413 204.429785 
L 280.431071 170.656825 
L 277.151729 150.829964 
L 273.872387 127.010096 
L 270.593044 120.890707 
L 267.313702 112.842218 
L 264.034379 103.141438 
L 260.755037 97.232388 
L 257.475695 96.762969 
L 254.196372 96.72242 
L 250.91703 96.724407 
L 247.637688 96.711168 
L 244.358346 96.684588 
L 241.079004 96.563629 
L 237.799681 96.50163 
L 234.520339 96.46916 
L 231.240996 96.402872 
L 227.961654 96.400287 
L 224.682312 96.383966 
L 221.40297 96.377346 
L 218.123637 96.370818 
L 214.844295 96.365354 
L 211.564953 96.35475 
L 208.285621 96.348587 
L 205.006278 96.341896 
L 201.726936 96.330745 
L 198.447604 96.314566 
L 195.168262 96.309832 
L 191.888929 96.305827 
L 188.609587 96.304743 
L 185.330245 96.302218 
L 182.050912 96.284427 
L 178.77157 96.281102 
L 175.492238 96.27353 
L 172.212895 96.263687 
L 168.933553 96.263352 
L 165.654221 96.269424 
L 162.374879 96.269931 
L 159.095537 96.270985 
L 155.816204 96.272597 
L 152.536862 96.274838 
L 149.25752 96.277575 
L 145.978182 96.280737 
L 142.698845 96.284427 
L 139.419503 96.288797 
L 136.140166 96.302087 
L 132.860828 96.315731 
L 129.581486 96.323659 
L 126.302149 96.329691 
L 123.022811 96.336533 
L 119.743469 96.343558 
L 116.464132 96.351607 
L 113.184795 96.359788 
L 109.905455 96.376322 
L 106.626115 96.383124 
L 103.346778 96.412867 
L 100.067438 96.44479 
L 96.788098 96.464507 
L 93.508761 96.479875 
L 90.229421 96.549285 
L 86.950083 96.576463 
L 83.670744 96.573817 
L 80.391405 96.643025 
L 77.112066 96.751727 
L 73.832727 97.424845 
z
" clip-path="url(#pe990841c05)" style="fill: #1f77b4; fill-opacity: 0.3"/>
   </g>
   <g id="PolyCollection_2">
    <path d="M 73.832727 97.507413 
L 73.832727 94.936651 
L 77.112066 94.761925 
L 80.391405 94.867454 
L 83.670744 94.993846 
L 86.950083 95.032429 
L 90.229421 94.98896 
L 93.508761 94.920128 
L 96.788098 94.866461 
L 100.067438 94.833474 
L 103.346778 94.808739 
L 106.626115 94.777435 
L 109.905455 94.725511 
L 113.184795 94.644595 
L 116.464132 94.548615 
L 119.743469 94.476113 
L 123.022811 94.459671 
L 126.302149 94.494746 
L 129.581486 94.545615 
L 132.860828 94.578074 
L 136.140166 94.580426 
L 139.419503 94.556076 
L 142.698845 94.511939 
L 145.978182 94.464577 
L 149.25752 94.447323 
L 152.536862 94.491198 
L 155.816204 94.590117 
L 159.095537 94.693478 
L 162.374879 94.741305 
L 165.654221 94.708947 
L 168.933553 94.621685 
L 172.212895 94.533815 
L 175.492238 94.495577 
L 178.77157 94.534342 
L 182.050912 94.647515 
L 185.330245 94.79994 
L 188.609587 94.930691 
L 191.888929 94.977748 
L 195.168262 94.908206 
L 198.447604 94.737027 
L 201.726936 94.526435 
L 205.006278 94.364927 
L 208.285621 94.326851 
L 211.564953 94.425285 
L 214.844295 94.594598 
L 218.123637 94.730479 
L 221.40297 94.763587 
L 224.682312 94.705987 
L 227.961654 94.634742 
L 231.240996 94.633485 
L 234.520339 94.742157 
L 237.799681 94.937929 
L 241.079004 95.141567 
L 244.358346 95.233553 
L 247.637688 95.076283 
L 250.91703 94.535863 
L 254.196372 93.502566 
L 257.475695 91.940285 
L 260.755037 89.97687 
L 264.034379 87.769024 
L 267.313702 84.478634 
L 270.593044 76.9621 
L 273.872387 63.356468 
L 277.151729 53.568 
L 280.431071 65.637485 
L 283.710413 101.415165 
L 286.989755 146.37427 
L 290.269097 189.953535 
L 293.54844 226.033738 
L 296.827762 248.964854 
L 300.107105 258.848204 
L 303.386447 260.991885 
L 306.665789 260.542182 
L 309.945131 260.135461 
L 313.224473 260.309731 
L 316.503815 260.635376 
L 319.783138 260.628611 
L 323.06248 260.190464 
L 326.341822 259.622392 
L 329.621165 259.358783 
L 332.900507 259.643018 
L 336.17983 260.425275 
L 339.459172 261.476873 
L 342.738514 262.49796 
L 346.017837 263.19235 
L 349.297179 263.393932 
L 352.576521 263.166593 
L 355.855863 262.758111 
L 359.135205 262.426721 
L 362.414548 262.258071 
L 365.69389 262.134613 
L 368.973232 261.930288 
L 372.252574 261.686357 
L 375.531897 261.485583 
L 378.811239 261.264947 
L 382.090581 260.949395 
L 385.369923 260.738681 
L 388.649266 261.091769 
L 391.928588 262.102059 
L 395.207931 262.28453 
L 398.487273 258.22559 
L 398.487273 270.847346 
L 398.487273 270.847346 
L 395.207931 273.386279 
L 391.928588 271.867163 
L 388.649266 270.05477 
L 385.369923 269.384172 
L 382.090581 269.604847 
L 378.811239 270.101803 
L 375.531897 270.530134 
L 372.252574 270.821663 
L 368.973232 270.90996 
L 365.69389 270.652787 
L 362.414548 270.079766 
L 359.135205 269.492182 
L 355.855863 269.189861 
L 352.576521 269.214174 
L 349.297179 269.381098 
L 346.017837 269.490903 
L 342.738514 269.515824 
L 339.459172 269.625051 
L 336.17983 270.014311 
L 332.900507 270.697788 
L 329.621165 271.471663 
L 326.341822 272.055657 
L 323.06248 272.247583 
L 319.783138 272.00848 
L 316.503815 271.535347 
L 313.224473 271.364279 
L 309.945131 272.419173 
L 306.665789 275.779383 
L 303.386447 281.986034 
L 300.107105 289.906276 
L 296.827762 295.488 
L 293.54844 292.078809 
L 290.269097 274.998235 
L 286.989755 245.87396 
L 283.710413 209.992575 
L 280.431071 176.342955 
L 277.151729 155.425887 
L 273.872387 144.028901 
L 270.593044 130.984045 
L 267.313702 116.235815 
L 264.034379 105.416261 
L 260.755037 99.977491 
L 257.475695 98.038517 
L 254.196372 97.612314 
L 250.91703 97.619552 
L 247.637688 97.639634 
L 244.358346 97.560381 
L 241.079004 97.400272 
L 237.799681 97.230016 
L 234.520339 97.125814 
L 231.240996 97.137168 
L 227.961654 97.267686 
L 224.682312 97.4673 
L 221.40297 97.647004 
L 218.123637 97.721655 
L 214.844295 97.662362 
L 211.564953 97.516141 
L 208.285621 97.372516 
L 205.006278 97.302599 
L 201.726936 97.319437 
L 198.447604 97.384154 
L 195.168262 97.440588 
L 191.888929 97.449043 
L 188.609587 97.404641 
L 185.330245 97.336366 
L 182.050912 97.287099 
L 178.77157 97.285903 
L 175.492238 97.333538 
L 172.212895 97.41119 
L 168.933553 97.49317 
L 165.654221 97.550314 
L 162.374879 97.556001 
L 159.095537 97.506663 
L 155.816204 97.435702 
L 152.536862 97.397079 
L 149.25752 97.423628 
L 145.978182 97.499577 
L 142.698845 97.578516 
L 139.419503 97.625614 
L 136.140166 97.635975 
L 132.860828 97.61938 
L 129.581486 97.584974 
L 126.302149 97.546493 
L 123.022811 97.52787 
L 119.743469 97.545529 
L 116.464132 97.584142 
L 113.184795 97.601366 
L 109.905455 97.565267 
L 106.626115 97.481583 
L 103.346778 97.380859 
L 100.067438 97.292938 
L 96.788098 97.239514 
L 93.508761 97.233057 
L 90.229421 97.264868 
L 86.950083 97.291833 
L 83.670744 97.259698 
L 80.391405 97.173612 
L 77.112066 97.16164 
L 73.832727 97.507413 
z
" clip-path="url(#pe990841c05)" style="fill: #ff7f0e; fill-opacity: 0.2"/>
   </g>
   <g id="matplotlib.axis_1">
    <g id="xtick_1">
     <g id="line2d_1">
      <defs>
       <path id="mbb05ed6480" d="M 0 0 
L 0 3.5 
" style="stroke: #000000; stroke-width: 0.8"/>
      </defs>
      <g>
       <use xlink:href="#mbb05ed6480" x="73.832727" y="307.584" style="stroke: #000000; stroke-width: 0.8"/>
      </g>
     </g>
     <g id="text_1">
      <!-- 0.0 -->
      <g transform="translate(65.881165 322.182437) scale(0.1 -0.1)">
       <defs>
        <path id="DejaVuSans-30" d="M 2034 4250 
Q 1547 4250 1301 3770 
Q 1056 3291 1056 2328 
Q 1056 1369 1301 889 
Q 1547 409 2034 409 
Q 2525 409 2770 889 
Q 3016 1369 3016 2328 
Q 3016 3291 2770 3770 
Q 2525 4250 2034 4250 
z
M 2034 4750 
Q 2819 4750 3233 4129 
Q 3647 3509 3647 2328 
Q 3647 1150 3233 529 
Q 2819 -91 2034 -91 
Q 1250 -91 836 529 
Q 422 1150 422 2328 
Q 422 3509 836 4129 
Q 1250 4750 2034 4750 
z
" transform="scale(0.015625)"/>
        <path id="DejaVuSans-2e" d="M 684 794 
L 1344 794 
L 1344 0 
L 684 0 
L 684 794 
z
" transform="scale(0.015625)"/>
       </defs>
       <use xlink:href="#DejaVuSans-30"/>
       <use xlink:href="#DejaVuSans-2e" x="63.623047"/>
       <use xlink:href="#DejaVuSans-30" x="95.410156"/>
      </g>
     </g>
    </g>
    <g id="xtick_2">
     <g id="line2d_2">
      <g>
       <use xlink:href="#mbb05ed6480" x="138.763636" y="307.584" style="stroke: #000000; stroke-width: 0.8"/>
      </g>
     </g>
     <g id="text_2">
      <!-- 0.2 -->
      <g transform="translate(130.812074 322.182437) scale(0.1 -0.1)">
       <defs>
        <path id="DejaVuSans-32" d="M 1228 531 
L 3431 531 
L 3431 0 
L 469 0 
L 469 531 
Q 828 903 1448 1529 
Q 2069 2156 2228 2338 
Q 2531 2678 2651 2914 
Q 2772 3150 2772 3378 
Q 2772 3750 2511 3984 
Q 2250 4219 1831 4219 
Q 1534 4219 1204 4116 
Q 875 4013 500 3803 
L 500 4441 
Q 881 4594 1212 4672 
Q 1544 4750 1819 4750 
Q 2544 4750 2975 4387 
Q 3406 4025 3406 3419 
Q 3406 3131 3298 2873 
Q 3191 2616 2906 2266 
Q 2828 2175 2409 1742 
Q 1991 1309 1228 531 
z
" transform="scale(0.015625)"/>
       </defs>
       <use xlink:href="#DejaVuSans-30"/>
       <use xlink:href="#DejaVuSans-2e" x="63.623047"/>
       <use xlink:href="#DejaVuSans-32" x="95.410156"/>
      </g>
     </g>
    </g>
    <g id="xtick_3">
     <g id="line2d_3">
      <g>
       <use xlink:href="#mbb05ed6480" x="203.694545" y="307.584" style="stroke: #000000; stroke-width: 0.8"/>
      </g>
     </g>
     <g id="text_3">
      <!-- 0.4 -->
      <g transform="translate(195.742983 322.182437) scale(0.1 -0.1)">
       <defs>
        <path id="DejaVuSans-34" d="M 2419 4116 
L 825 1625 
L 2419 1625 
L 2419 4116 
z
M 2253 4666 
L 3047 4666 
L 3047 1625 
L 3713 1625 
L 3713 1100 
L 3047 1100 
L 3047 0 
L 2419 0 
L 2419 1100 
L 313 1100 
L 313 1709 
L 2253 4666 
z
" transform="scale(0.015625)"/>
       </defs>
       <use xlink:href="#DejaVuSans-30"/>
       <use xlink:href="#DejaVuSans-2e" x="63.623047"/>
       <use xlink:href="#DejaVuSans-34" x="95.410156"/>
      </g>
     </g>
    </g>
    <g id="xtick_4">
     <g id="line2d_4">
      <g>
       <use xlink:href="#mbb05ed6480" x="268.625455" y="307.584" style="stroke: #000000; stroke-width: 0.8"/>
      </g>
     </g>
     <g id="text_4">
      <!-- 0.6 -->
      <g transform="translate(260.673892 322.182437) scale(0.1 -0.1)">
       <defs>
        <path id="DejaVuSans-36" d="M 2113 2584 
Q 1688 2584 1439 2293 
Q 1191 2003 1191 1497 
Q 1191 994 1439 701 
Q 1688 409 2113 409 
Q 2538 409 2786 701 
Q 3034 994 3034 1497 
Q 3034 2003 2786 2293 
Q 2538 2584 2113 2584 
z
M 3366 4563 
L 3366 3988 
Q 3128 4100 2886 4159 
Q 2644 4219 2406 4219 
Q 1781 4219 1451 3797 
Q 1122 3375 1075 2522 
Q 1259 2794 1537 2939 
Q 1816 3084 2150 3084 
Q 2853 3084 3261 2657 
Q 3669 2231 3669 1497 
Q 3669 778 3244 343 
Q 2819 -91 2113 -91 
Q 1303 -91 875 529 
Q 447 1150 447 2328 
Q 447 3434 972 4092 
Q 1497 4750 2381 4750 
Q 2619 4750 2861 4703 
Q 3103 4656 3366 4563 
z
" transform="scale(0.015625)"/>
       </defs>
       <use xlink:href="#DejaVuSans-30"/>
       <use xlink:href="#DejaVuSans-2e" x="63.623047"/>
       <use xlink:href="#DejaVuSans-36" x="95.410156"/>
      </g>
     </g>
    </g>
    <g id="xtick_5">
     <g id="line2d_5">
      <g>
       <use xlink:href="#mbb05ed6480" x="333.556364" y="307.584" style="stroke: #000000; stroke-width: 0.8"/>
      </g>
     </g>
     <g id="text_5">
      <!-- 0.8 -->
      <g transform="translate(325.604801 322.182437) scale(0.1 -0.1)">
       <defs>
        <path id="DejaVuSans-38" d="M 2034 2216 
Q 1584 2216 1326 1975 
Q 1069 1734 1069 1313 
Q 1069 891 1326 650 
Q 1584 409 2034 409 
Q 2484 409 2743 651 
Q 3003 894 3003 1313 
Q 3003 1734 2745 1975 
Q 2488 2216 2034 2216 
z
M 1403 2484 
Q 997 2584 770 2862 
Q 544 3141 544 3541 
Q 544 4100 942 4425 
Q 1341 4750 2034 4750 
Q 2731 4750 3128 4425 
Q 3525 4100 3525 3541 
Q 3525 3141 3298 2862 
Q 3072 2584 2669 2484 
Q 3125 2378 3379 2068 
Q 3634 1759 3634 1313 
Q 3634 634 3220 271 
Q 2806 -91 2034 -91 
Q 1263 -91 848 271 
Q 434 634 434 1313 
Q 434 1759 690 2068 
Q 947 2378 1403 2484 
z
M 1172 3481 
Q 1172 3119 1398 2916 
Q 1625 2713 2034 2713 
Q 2441 2713 2670 2916 
Q 2900 3119 2900 3481 
Q 2900 3844 2670 4047 
Q 2441 4250 2034 4250 
Q 1625 4250 1398 4047 
Q 1172 3844 1172 3481 
z
" transform="scale(0.015625)"/>
       </defs>
       <use xlink:href="#DejaVuSans-30"/>
       <use xlink:href="#DejaVuSans-2e" x="63.623047"/>
       <use xlink:href="#DejaVuSans-38" x="95.410156"/>
      </g>
     </g>
    </g>
    <g id="xtick_6">
     <g id="line2d_6">
      <g>
       <use xlink:href="#mbb05ed6480" x="398.487273" y="307.584" style="stroke: #000000; stroke-width: 0.8"/>
      </g>
     </g>
     <g id="text_6">
      <!-- 1.0 -->
      <g transform="translate(390.53571 322.182437) scale(0.1 -0.1)">
       <defs>
        <path id="DejaVuSans-31" d="M 794 531 
L 1825 531 
L 1825 4091 
L 703 3866 
L 703 4441 
L 1819 4666 
L 2450 4666 
L 2450 531 
L 3481 531 
L 3481 0 
L 794 0 
L 794 531 
z
" transform="scale(0.015625)"/>
       </defs>
       <use xlink:href="#DejaVuSans-31"/>
       <use xlink:href="#DejaVuSans-2e" x="63.623047"/>
       <use xlink:href="#DejaVuSans-30" x="95.410156"/>
      </g>
     </g>
    </g>
    <g id="text_7">
     <!-- x -->
     <g transform="translate(233.200625 335.860562) scale(0.1 -0.1)">
      <defs>
       <path id="DejaVuSans-78" d="M 3513 3500 
L 2247 1797 
L 3578 0 
L 2900 0 
L 1881 1375 
L 863 0 
L 184 0 
L 1544 1831 
L 300 3500 
L 978 3500 
L 1906 2253 
L 2834 3500 
L 3513 3500 
z
" transform="scale(0.015625)"/>
      </defs>
      <use xlink:href="#DejaVuSans-78"/>
     </g>
    </g>
   </g>
   <g id="matplotlib.axis_2">
    <g id="ytick_1">
     <g id="line2d_7">
      <defs>
       <path id="mf6ca3dfda7" d="M 0 0 
L -3.5 0 
" style="stroke: #000000; stroke-width: 0.8"/>
      </defs>
      <g>
       <use xlink:href="#mf6ca3dfda7" x="57.6" y="300.268954" style="stroke: #000000; stroke-width: 0.8"/>
      </g>
     </g>
     <g id="text_8">
      <!-- −0.2 -->
      <g transform="translate(26.317187 304.068173) scale(0.1 -0.1)">
       <defs>
        <path id="DejaVuSans-2212" d="M 678 2272 
L 4684 2272 
L 4684 1741 
L 678 1741 
L 678 2272 
z
" transform="scale(0.015625)"/>
       </defs>
       <use xlink:href="#DejaVuSans-2212"/>
       <use xlink:href="#DejaVuSans-30" x="83.789062"/>
       <use xlink:href="#DejaVuSans-2e" x="147.412109"/>
       <use xlink:href="#DejaVuSans-32" x="179.199219"/>
      </g>
     </g>
    </g>
    <g id="ytick_2">
     <g id="line2d_8">
      <g>
       <use xlink:href="#mf6ca3dfda7" x="57.6" y="266.253776" style="stroke: #000000; stroke-width: 0.8"/>
      </g>
     </g>
     <g id="text_9">
      <!-- 0.0 -->
      <g transform="translate(34.696875 270.052994) scale(0.1 -0.1)">
       <use xlink:href="#DejaVuSans-30"/>
       <use xlink:href="#DejaVuSans-2e" x="63.623047"/>
       <use xlink:href="#DejaVuSans-30" x="95.410156"/>
      </g>
     </g>
    </g>
    <g id="ytick_3">
     <g id="line2d_9">
      <g>
       <use xlink:href="#mf6ca3dfda7" x="57.6" y="232.238597" style="stroke: #000000; stroke-width: 0.8"/>
      </g>
     </g>
     <g id="text_10">
      <!-- 0.2 -->
      <g transform="translate(34.696875 236.037816) scale(0.1 -0.1)">
       <use xlink:href="#DejaVuSans-30"/>
       <use xlink:href="#DejaVuSans-2e" x="63.623047"/>
       <use xlink:href="#DejaVuSans-32" x="95.410156"/>
      </g>
     </g>
    </g>
    <g id="ytick_4">
     <g id="line2d_10">
      <g>
       <use xlink:href="#mf6ca3dfda7" x="57.6" y="198.223419" style="stroke: #000000; stroke-width: 0.8"/>
      </g>
     </g>
     <g id="text_11">
      <!-- 0.4 -->
      <g transform="translate(34.696875 202.022638) scale(0.1 -0.1)">
       <use xlink:href="#DejaVuSans-30"/>
       <use xlink:href="#DejaVuSans-2e" x="63.623047"/>
       <use xlink:href="#DejaVuSans-34" x="95.410156"/>
      </g>
     </g>
    </g>
    <g id="ytick_5">
     <g id="line2d_11">
      <g>
       <use xlink:href="#mf6ca3dfda7" x="57.6" y="164.208241" style="stroke: #000000; stroke-width: 0.8"/>
      </g>
     </g>
     <g id="text_12">
      <!-- 0.6 -->
      <g transform="translate(34.696875 168.00746) scale(0.1 -0.1)">
       <use xlink:href="#DejaVuSans-30"/>
       <use xlink:href="#DejaVuSans-2e" x="63.623047"/>
       <use xlink:href="#DejaVuSans-36" x="95.410156"/>
      </g>
     </g>
    </g>
    <g id="ytick_6">
     <g id="line2d_12">
      <g>
       <use xlink:href="#mf6ca3dfda7" x="57.6" y="130.193063" style="stroke: #000000; stroke-width: 0.8"/>
      </g>
     </g>
     <g id="text_13">
      <!-- 0.8 -->
      <g transform="translate(34.696875 133.992281) scale(0.1 -0.1)">
       <use xlink:href="#DejaVuSans-30"/>
       <use xlink:href="#DejaVuSans-2e" x="63.623047"/>
       <use xlink:href="#DejaVuSans-38" x="95.410156"/>
      </g>
     </g>
    </g>
    <g id="ytick_7">
     <g id="line2d_13">
      <g>
       <use xlink:href="#mf6ca3dfda7" x="57.6" y="96.177884" style="stroke: #000000; stroke-width: 0.8"/>
      </g>
     </g>
     <g id="text_14">
      <!-- 1.0 -->
      <g transform="translate(34.696875 99.977103) scale(0.1 -0.1)">
       <use xlink:href="#DejaVuSans-31"/>
       <use xlink:href="#DejaVuSans-2e" x="63.623047"/>
       <use xlink:href="#DejaVuSans-30" x="95.410156"/>
      </g>
     </g>
    </g>
    <g id="ytick_8">
     <g id="line2d_14">
      <g>
       <use xlink:href="#mf6ca3dfda7" x="57.6" y="62.162706" style="stroke: #000000; stroke-width: 0.8"/>
      </g>
     </g>
     <g id="text_15">
      <!-- 1.2 -->
      <g transform="translate(34.696875 65.961925) scale(0.1 -0.1)">
       <use xlink:href="#DejaVuSans-31"/>
       <use xlink:href="#DejaVuSans-2e" x="63.623047"/>
       <use xlink:href="#DejaVuSans-32" x="95.410156"/>
      </g>
     </g>
    </g>
    <g id="text_16">
     <!-- u(x,t=0.10) -->
     <g transform="translate(20.2375 203.429563) rotate(-90) scale(0.1 -0.1)">
      <defs>
       <path id="DejaVuSans-75" d="M 544 1381 
L 544 3500 
L 1119 3500 
L 1119 1403 
Q 1119 906 1312 657 
Q 1506 409 1894 409 
Q 2359 409 2629 706 
Q 2900 1003 2900 1516 
L 2900 3500 
L 3475 3500 
L 3475 0 
L 2900 0 
L 2900 538 
Q 2691 219 2414 64 
Q 2138 -91 1772 -91 
Q 1169 -91 856 284 
Q 544 659 544 1381 
z
M 1991 3584 
L 1991 3584 
z
" transform="scale(0.015625)"/>
       <path id="DejaVuSans-28" d="M 1984 4856 
Q 1566 4138 1362 3434 
Q 1159 2731 1159 2009 
Q 1159 1288 1364 580 
Q 1569 -128 1984 -844 
L 1484 -844 
Q 1016 -109 783 600 
Q 550 1309 550 2009 
Q 550 2706 781 3412 
Q 1013 4119 1484 4856 
L 1984 4856 
z
" transform="scale(0.015625)"/>
       <path id="DejaVuSans-2c" d="M 750 794 
L 1409 794 
L 1409 256 
L 897 -744 
L 494 -744 
L 750 256 
L 750 794 
z
" transform="scale(0.015625)"/>
       <path id="DejaVuSans-74" d="M 1172 4494 
L 1172 3500 
L 2356 3500 
L 2356 3053 
L 1172 3053 
L 1172 1153 
Q 1172 725 1289 603 
Q 1406 481 1766 481 
L 2356 481 
L 2356 0 
L 1766 0 
Q 1100 0 847 248 
Q 594 497 594 1153 
L 594 3053 
L 172 3053 
L 172 3500 
L 594 3500 
L 594 4494 
L 1172 4494 
z
" transform="scale(0.015625)"/>
       <path id="DejaVuSans-3d" d="M 678 2906 
L 4684 2906 
L 4684 2381 
L 678 2381 
L 678 2906 
z
M 678 1631 
L 4684 1631 
L 4684 1100 
L 678 1100 
L 678 1631 
z
" transform="scale(0.015625)"/>
       <path id="DejaVuSans-29" d="M 513 4856 
L 1013 4856 
Q 1481 4119 1714 3412 
Q 1947 2706 1947 2009 
Q 1947 1309 1714 600 
Q 1481 -109 1013 -844 
L 513 -844 
Q 928 -128 1133 580 
Q 1338 1288 1338 2009 
Q 1338 2731 1133 3434 
Q 928 4138 513 4856 
z
" transform="scale(0.015625)"/>
      </defs>
      <use xlink:href="#DejaVuSans-75"/>
      <use xlink:href="#DejaVuSans-28" x="63.378906"/>
      <use xlink:href="#DejaVuSans-78" x="102.392578"/>
      <use xlink:href="#DejaVuSans-2c" x="161.572266"/>
      <use xlink:href="#DejaVuSans-74" x="193.359375"/>
      <use xlink:href="#DejaVuSans-3d" x="232.568359"/>
      <use xlink:href="#DejaVuSans-30" x="316.357422"/>
      <use xlink:href="#DejaVuSans-2e" x="379.980469"/>
      <use xlink:href="#DejaVuSans-31" x="411.767578"/>
      <use xlink:href="#DejaVuSans-30" x="475.390625"/>
      <use xlink:href="#DejaVuSans-29" x="539.013672"/>
     </g>
    </g>
   </g>
   <g id="line2d_15">
    <path d="M 73.832727 96.479743 
L 77.112066 96.272232 
L 80.391405 96.243615 
L 83.670744 96.211743 
L 86.950083 96.200237 
L 90.229421 96.189725 
L 93.508761 96.170667 
L 96.788098 96.162111 
L 100.067438 96.152946 
L 103.346778 96.142282 
L 106.626115 96.132712 
L 109.905455 96.129975 
L 113.184795 96.125616 
L 116.464132 96.116108 
L 119.743469 96.108322 
L 123.022811 96.105301 
L 126.302149 96.100131 
L 129.581486 96.09713 
L 132.860828 96.092183 
L 136.140166 96.091859 
L 139.419503 96.083972 
L 142.698845 96.081418 
L 145.978182 96.079127 
L 149.25752 96.076998 
L 152.536862 96.075112 
L 155.816204 96.07349 
L 159.095537 96.072233 
L 162.374879 96.071321 
L 165.654221 96.070773 
L 168.933553 96.069395 
L 172.212895 96.069557 
L 175.492238 96.072902 
L 178.77157 96.07645 
L 182.050912 96.078032 
L 185.330245 96.087845 
L 188.609587 96.089974 
L 191.888929 96.093278 
L 195.168262 96.096218 
L 198.447604 96.099462 
L 201.726936 96.107369 
L 205.006278 96.11262 
L 208.285621 96.11779 
L 211.564953 96.121419 
L 214.844295 96.126306 
L 218.123637 96.132489 
L 221.40297 96.135855 
L 224.682312 96.139038 
L 227.961654 96.144046 
L 231.240996 96.148121 
L 234.520339 96.165415 
L 237.799681 96.184321 
L 241.079004 96.22854 
L 244.358346 96.258861 
L 247.637688 96.268897 
L 250.91703 96.2743 
L 254.196372 96.275233 
L 257.475695 96.284904 
L 260.755037 96.36438 
L 264.034379 97.813966 
L 267.313702 101.836076 
L 270.593044 105.718008 
L 273.872387 108.451403 
L 277.151729 116.634496 
L 280.431071 133.77658 
L 283.710413 160.121673 
L 286.989755 208.611148 
L 290.269097 233.284238 
L 293.54844 258.37458 
L 296.827762 264.543047 
L 300.107105 264.876301 
L 303.386447 264.875961 
L 306.665789 264.875647 
L 309.945131 264.875353 
L 313.224473 264.87507 
L 316.503815 264.874801 
L 319.783138 264.874547 
L 323.06248 264.874303 
L 326.341822 264.874069 
L 329.621165 264.873847 
L 332.900507 264.873633 
L 336.17983 264.873424 
L 339.459172 264.87322 
L 342.738514 264.878052 
L 346.017837 264.877908 
L 349.297179 264.877817 
L 352.576521 264.877786 
L 355.855863 264.877813 
L 359.135205 264.877884 
L 362.414548 264.877991 
L 365.69389 264.878134 
L 368.973232 264.878309 
L 372.252574 264.878517 
L 375.531897 264.878745 
L 378.811239 264.878942 
L 382.090581 264.875242 
L 385.369923 264.874602 
L 388.649266 264.874879 
L 391.928588 264.875169 
L 395.207931 264.865586 
L 398.487273 263.930545 
" clip-path="url(#pe990841c05)" style="fill: none; stroke-dasharray: 7.4,3.2; stroke-dashoffset: 0; stroke: #1f77b4; stroke-width: 2"/>
   </g>
   <g id="line2d_16">
    <path d="M 73.832727 96.222032 
L 77.112066 95.961777 
L 80.391405 96.020533 
L 83.670744 96.126772 
L 86.950083 96.162131 
L 90.229421 96.126914 
L 93.508761 96.076592 
L 96.788098 96.052993 
L 100.067438 96.063211 
L 103.346778 96.094799 
L 106.626115 96.129509 
L 109.905455 96.145384 
L 113.184795 96.122981 
L 116.464132 96.066374 
L 119.743469 96.010821 
L 123.022811 95.99377 
L 126.302149 96.020614 
L 129.581486 96.065299 
L 132.860828 96.098732 
L 136.140166 96.1082 
L 139.419503 96.090845 
L 142.698845 96.045227 
L 145.978182 95.982072 
L 149.25752 95.935481 
L 152.536862 95.944138 
L 155.816204 96.01291 
L 159.095537 96.10007 
L 162.374879 96.148648 
L 165.654221 96.129631 
L 168.933553 96.057433 
L 172.212895 95.972502 
L 175.492238 95.914557 
L 178.77157 95.910117 
L 182.050912 95.967312 
L 185.330245 96.068158 
L 188.609587 96.167666 
L 191.888929 96.213395 
L 195.168262 96.174397 
L 198.447604 96.060596 
L 201.726936 95.922931 
L 205.006278 95.833763 
L 208.285621 95.849679 
L 211.564953 95.970718 
L 214.844295 96.128475 
L 218.123637 96.226067 
L 221.40297 96.205296 
L 224.682312 96.086648 
L 227.961654 95.951214 
L 231.240996 95.885321 
L 234.520339 95.933981 
L 237.799681 96.083972 
L 241.079004 96.270914 
L 244.358346 96.396962 
L 247.637688 96.357964 
L 250.91703 96.077707 
L 254.196372 95.55744 
L 257.475695 94.989406 
L 260.755037 94.97718 
L 264.034379 96.592642 
L 267.313702 100.357225 
L 270.593044 103.973073 
L 273.872387 103.692685 
L 277.151729 104.496938 
L 280.431071 120.990225 
L 283.710413 155.703873 
L 286.989755 196.124112 
L 290.269097 232.475886 
L 293.54844 259.056272 
L 296.827762 272.226427 
L 300.107105 274.377239 
L 303.386447 271.48896 
L 306.665789 268.160782 
L 309.945131 266.277317 
L 313.224473 265.837005 
L 316.503815 266.085361 
L 319.783138 266.318546 
L 323.06248 266.219024 
L 326.341822 265.839024 
L 329.621165 265.415223 
L 332.900507 265.170403 
L 336.17983 265.219793 
L 339.459172 265.550962 
L 342.738514 266.006892 
L 346.017837 266.341627 
L 349.297179 266.387515 
L 352.576521 266.190384 
L 355.855863 265.973986 
L 359.135205 265.959451 
L 362.414548 266.168919 
L 365.69389 266.3937 
L 368.973232 266.420124 
L 372.252574 266.25401 
L 375.531897 266.007859 
L 378.811239 265.683375 
L 382.090581 265.277121 
L 385.369923 265.061427 
L 388.649266 265.573269 
L 391.928588 266.984611 
L 395.207931 267.835405 
L 398.487273 264.536468 
" clip-path="url(#pe990841c05)" style="fill: none; stroke-dasharray: 7.4,3.2; stroke-dashoffset: 0; stroke: #ff7f0e; stroke-width: 2"/>
   </g>
   <g id="line2d_17">
    <path d="M 73.832727 96.177884 
L 77.112066 96.177884 
L 80.391405 96.177884 
L 83.670744 96.177884 
L 86.950083 96.177884 
L 90.229421 96.177884 
L 93.508761 96.177884 
L 96.788098 96.177884 
L 100.067438 96.177884 
L 103.346778 96.177884 
L 106.626115 96.177884 
L 109.905455 96.177884 
L 113.184795 96.177884 
L 116.464132 96.177884 
L 119.743469 96.177884 
L 123.022811 96.177884 
L 126.302149 96.177884 
L 129.581486 96.177884 
L 132.860828 96.177884 
L 136.140166 96.177884 
L 139.419503 96.177884 
L 142.698845 96.177884 
L 145.978182 96.177884 
L 149.25752 96.177884 
L 152.536862 96.177884 
L 155.816204 96.177884 
L 159.095537 96.177884 
L 162.374879 96.177884 
L 165.654221 96.177884 
L 168.933553 96.177884 
L 172.212895 96.177884 
L 175.492238 96.177884 
L 178.77157 96.177884 
L 182.050912 96.177884 
L 185.330245 96.177884 
L 188.609587 96.177884 
L 191.888929 96.177884 
L 195.168262 96.177884 
L 198.447604 96.177884 
L 201.726936 96.177884 
L 205.006278 96.177884 
L 208.285621 96.177884 
L 211.564953 96.177884 
L 214.844295 96.177884 
L 218.123637 96.177884 
L 221.40297 96.177884 
L 224.682312 96.177884 
L 227.961654 96.177884 
L 231.240996 96.177884 
L 234.520339 96.177884 
L 237.799681 96.177884 
L 241.079004 96.177884 
L 244.358346 96.177884 
L 247.637688 96.177884 
L 250.91703 96.177884 
L 254.196372 96.177884 
L 257.475695 96.177884 
L 260.755037 96.177884 
L 264.034379 96.177884 
L 267.313702 96.177884 
L 270.593044 96.177884 
L 273.872387 96.177884 
L 277.151729 96.177884 
L 280.431071 96.177884 
L 283.710413 96.177884 
L 286.989755 266.253776 
L 290.269097 266.253776 
L 293.54844 266.253776 
L 296.827762 266.253776 
L 300.107105 266.253776 
L 303.386447 266.253776 
L 306.665789 266.253776 
L 309.945131 266.253776 
L 313.224473 266.253776 
L 316.503815 266.253776 
L 319.783138 266.253776 
L 323.06248 266.253776 
L 326.341822 266.253776 
L 329.621165 266.253776 
L 332.900507 266.253776 
L 336.17983 266.253776 
L 339.459172 266.253776 
L 342.738514 266.253776 
L 346.017837 266.253776 
L 349.297179 266.253776 
L 352.576521 266.253776 
L 355.855863 266.253776 
L 359.135205 266.253776 
L 362.414548 266.253776 
L 365.69389 266.253776 
L 368.973232 266.253776 
L 372.252574 266.253776 
L 375.531897 266.253776 
L 378.811239 266.253776 
L 382.090581 266.253776 
L 385.369923 266.253776 
L 388.649266 266.253776 
L 391.928588 266.253776 
L 395.207931 266.253776 
L 398.487273 266.253776 
" clip-path="url(#pe990841c05)" style="fill: none; stroke: #008000; stroke-width: 1.5; stroke-linecap: square"/>
   </g>
   <g id="patch_3">
    <path d="M 57.6 307.584 
L 57.6 41.472 
" style="fill: none; stroke: #000000; stroke-width: 0.8; stroke-linejoin: miter; stroke-linecap: square"/>
   </g>
   <g id="patch_4">
    <path d="M 414.72 307.584 
L 414.72 41.472 
" style="fill: none; stroke: #000000; stroke-width: 0.8; stroke-linejoin: miter; stroke-linecap: square"/>
   </g>
   <g id="patch_5">
    <path d="M 57.6 307.584 
L 414.72 307.584 
" style="fill: none; stroke: #000000; stroke-width: 0.8; stroke-linejoin: miter; stroke-linecap: square"/>
   </g>
   <g id="patch_6">
    <path d="M 57.6 41.472 
L 414.72 41.472 
" style="fill: none; stroke: #000000; stroke-width: 0.8; stroke-linejoin: miter; stroke-linecap: square"/>
   </g>
   <g id="text_17">
    <!-- Learning LinearAdvection_1D for parameter = 1.50 -->
    <g transform="translate(82.334063 35.472) scale(0.12 -0.12)">
     <defs>
      <path id="DejaVuSans-4c" d="M 628 4666 
L 1259 4666 
L 1259 531 
L 3531 531 
L 3531 0 
L 628 0 
L 628 4666 
z
" transform="scale(0.015625)"/>
      <path id="DejaVuSans-65" d="M 3597 1894 
L 3597 1613 
L 953 1613 
Q 991 1019 1311 708 
Q 1631 397 2203 397 
Q 2534 397 2845 478 
Q 3156 559 3463 722 
L 3463 178 
Q 3153 47 2828 -22 
Q 2503 -91 2169 -91 
Q 1331 -91 842 396 
Q 353 884 353 1716 
Q 353 2575 817 3079 
Q 1281 3584 2069 3584 
Q 2775 3584 3186 3129 
Q 3597 2675 3597 1894 
z
M 3022 2063 
Q 3016 2534 2758 2815 
Q 2500 3097 2075 3097 
Q 1594 3097 1305 2825 
Q 1016 2553 972 2059 
L 3022 2063 
z
" transform="scale(0.015625)"/>
      <path id="DejaVuSans-61" d="M 2194 1759 
Q 1497 1759 1228 1600 
Q 959 1441 959 1056 
Q 959 750 1161 570 
Q 1363 391 1709 391 
Q 2188 391 2477 730 
Q 2766 1069 2766 1631 
L 2766 1759 
L 2194 1759 
z
M 3341 1997 
L 3341 0 
L 2766 0 
L 2766 531 
Q 2569 213 2275 61 
Q 1981 -91 1556 -91 
Q 1019 -91 701 211 
Q 384 513 384 1019 
Q 384 1609 779 1909 
Q 1175 2209 1959 2209 
L 2766 2209 
L 2766 2266 
Q 2766 2663 2505 2880 
Q 2244 3097 1772 3097 
Q 1472 3097 1187 3025 
Q 903 2953 641 2809 
L 641 3341 
Q 956 3463 1253 3523 
Q 1550 3584 1831 3584 
Q 2591 3584 2966 3190 
Q 3341 2797 3341 1997 
z
" transform="scale(0.015625)"/>
      <path id="DejaVuSans-72" d="M 2631 2963 
Q 2534 3019 2420 3045 
Q 2306 3072 2169 3072 
Q 1681 3072 1420 2755 
Q 1159 2438 1159 1844 
L 1159 0 
L 581 0 
L 581 3500 
L 1159 3500 
L 1159 2956 
Q 1341 3275 1631 3429 
Q 1922 3584 2338 3584 
Q 2397 3584 2469 3576 
Q 2541 3569 2628 3553 
L 2631 2963 
z
" transform="scale(0.015625)"/>
      <path id="DejaVuSans-6e" d="M 3513 2113 
L 3513 0 
L 2938 0 
L 2938 2094 
Q 2938 2591 2744 2837 
Q 2550 3084 2163 3084 
Q 1697 3084 1428 2787 
Q 1159 2491 1159 1978 
L 1159 0 
L 581 0 
L 581 3500 
L 1159 3500 
L 1159 2956 
Q 1366 3272 1645 3428 
Q 1925 3584 2291 3584 
Q 2894 3584 3203 3211 
Q 3513 2838 3513 2113 
z
" transform="scale(0.015625)"/>
      <path id="DejaVuSans-69" d="M 603 3500 
L 1178 3500 
L 1178 0 
L 603 0 
L 603 3500 
z
M 603 4863 
L 1178 4863 
L 1178 4134 
L 603 4134 
L 603 4863 
z
" transform="scale(0.015625)"/>
      <path id="DejaVuSans-67" d="M 2906 1791 
Q 2906 2416 2648 2759 
Q 2391 3103 1925 3103 
Q 1463 3103 1205 2759 
Q 947 2416 947 1791 
Q 947 1169 1205 825 
Q 1463 481 1925 481 
Q 2391 481 2648 825 
Q 2906 1169 2906 1791 
z
M 3481 434 
Q 3481 -459 3084 -895 
Q 2688 -1331 1869 -1331 
Q 1566 -1331 1297 -1286 
Q 1028 -1241 775 -1147 
L 775 -588 
Q 1028 -725 1275 -790 
Q 1522 -856 1778 -856 
Q 2344 -856 2625 -561 
Q 2906 -266 2906 331 
L 2906 616 
Q 2728 306 2450 153 
Q 2172 0 1784 0 
Q 1141 0 747 490 
Q 353 981 353 1791 
Q 353 2603 747 3093 
Q 1141 3584 1784 3584 
Q 2172 3584 2450 3431 
Q 2728 3278 2906 2969 
L 2906 3500 
L 3481 3500 
L 3481 434 
z
" transform="scale(0.015625)"/>
      <path id="DejaVuSans-20" transform="scale(0.015625)"/>
      <path id="DejaVuSans-41" d="M 2188 4044 
L 1331 1722 
L 3047 1722 
L 2188 4044 
z
M 1831 4666 
L 2547 4666 
L 4325 0 
L 3669 0 
L 3244 1197 
L 1141 1197 
L 716 0 
L 50 0 
L 1831 4666 
z
" transform="scale(0.015625)"/>
      <path id="DejaVuSans-64" d="M 2906 2969 
L 2906 4863 
L 3481 4863 
L 3481 0 
L 2906 0 
L 2906 525 
Q 2725 213 2448 61 
Q 2172 -91 1784 -91 
Q 1150 -91 751 415 
Q 353 922 353 1747 
Q 353 2572 751 3078 
Q 1150 3584 1784 3584 
Q 2172 3584 2448 3432 
Q 2725 3281 2906 2969 
z
M 947 1747 
Q 947 1113 1208 752 
Q 1469 391 1925 391 
Q 2381 391 2643 752 
Q 2906 1113 2906 1747 
Q 2906 2381 2643 2742 
Q 2381 3103 1925 3103 
Q 1469 3103 1208 2742 
Q 947 2381 947 1747 
z
" transform="scale(0.015625)"/>
      <path id="DejaVuSans-76" d="M 191 3500 
L 800 3500 
L 1894 563 
L 2988 3500 
L 3597 3500 
L 2284 0 
L 1503 0 
L 191 3500 
z
" transform="scale(0.015625)"/>
      <path id="DejaVuSans-63" d="M 3122 3366 
L 3122 2828 
Q 2878 2963 2633 3030 
Q 2388 3097 2138 3097 
Q 1578 3097 1268 2742 
Q 959 2388 959 1747 
Q 959 1106 1268 751 
Q 1578 397 2138 397 
Q 2388 397 2633 464 
Q 2878 531 3122 666 
L 3122 134 
Q 2881 22 2623 -34 
Q 2366 -91 2075 -91 
Q 1284 -91 818 406 
Q 353 903 353 1747 
Q 353 2603 823 3093 
Q 1294 3584 2113 3584 
Q 2378 3584 2631 3529 
Q 2884 3475 3122 3366 
z
" transform="scale(0.015625)"/>
      <path id="DejaVuSans-6f" d="M 1959 3097 
Q 1497 3097 1228 2736 
Q 959 2375 959 1747 
Q 959 1119 1226 758 
Q 1494 397 1959 397 
Q 2419 397 2687 759 
Q 2956 1122 2956 1747 
Q 2956 2369 2687 2733 
Q 2419 3097 1959 3097 
z
M 1959 3584 
Q 2709 3584 3137 3096 
Q 3566 2609 3566 1747 
Q 3566 888 3137 398 
Q 2709 -91 1959 -91 
Q 1206 -91 779 398 
Q 353 888 353 1747 
Q 353 2609 779 3096 
Q 1206 3584 1959 3584 
z
" transform="scale(0.015625)"/>
      <path id="DejaVuSans-5f" d="M 3263 -1063 
L 3263 -1509 
L -63 -1509 
L -63 -1063 
L 3263 -1063 
z
" transform="scale(0.015625)"/>
      <path id="DejaVuSans-44" d="M 1259 4147 
L 1259 519 
L 2022 519 
Q 2988 519 3436 956 
Q 3884 1394 3884 2338 
Q 3884 3275 3436 3711 
Q 2988 4147 2022 4147 
L 1259 4147 
z
M 628 4666 
L 1925 4666 
Q 3281 4666 3915 4102 
Q 4550 3538 4550 2338 
Q 4550 1131 3912 565 
Q 3275 0 1925 0 
L 628 0 
L 628 4666 
z
" transform="scale(0.015625)"/>
      <path id="DejaVuSans-66" d="M 2375 4863 
L 2375 4384 
L 1825 4384 
Q 1516 4384 1395 4259 
Q 1275 4134 1275 3809 
L 1275 3500 
L 2222 3500 
L 2222 3053 
L 1275 3053 
L 1275 0 
L 697 0 
L 697 3053 
L 147 3053 
L 147 3500 
L 697 3500 
L 697 3744 
Q 697 4328 969 4595 
Q 1241 4863 1831 4863 
L 2375 4863 
z
" transform="scale(0.015625)"/>
      <path id="DejaVuSans-70" d="M 1159 525 
L 1159 -1331 
L 581 -1331 
L 581 3500 
L 1159 3500 
L 1159 2969 
Q 1341 3281 1617 3432 
Q 1894 3584 2278 3584 
Q 2916 3584 3314 3078 
Q 3713 2572 3713 1747 
Q 3713 922 3314 415 
Q 2916 -91 2278 -91 
Q 1894 -91 1617 61 
Q 1341 213 1159 525 
z
M 3116 1747 
Q 3116 2381 2855 2742 
Q 2594 3103 2138 3103 
Q 1681 3103 1420 2742 
Q 1159 2381 1159 1747 
Q 1159 1113 1420 752 
Q 1681 391 2138 391 
Q 2594 391 2855 752 
Q 3116 1113 3116 1747 
z
" transform="scale(0.015625)"/>
      <path id="DejaVuSans-6d" d="M 3328 2828 
Q 3544 3216 3844 3400 
Q 4144 3584 4550 3584 
Q 5097 3584 5394 3201 
Q 5691 2819 5691 2113 
L 5691 0 
L 5113 0 
L 5113 2094 
Q 5113 2597 4934 2840 
Q 4756 3084 4391 3084 
Q 3944 3084 3684 2787 
Q 3425 2491 3425 1978 
L 3425 0 
L 2847 0 
L 2847 2094 
Q 2847 2600 2669 2842 
Q 2491 3084 2119 3084 
Q 1678 3084 1418 2786 
Q 1159 2488 1159 1978 
L 1159 0 
L 581 0 
L 581 3500 
L 1159 3500 
L 1159 2956 
Q 1356 3278 1631 3431 
Q 1906 3584 2284 3584 
Q 2666 3584 2933 3390 
Q 3200 3197 3328 2828 
z
" transform="scale(0.015625)"/>
      <path id="DejaVuSans-35" d="M 691 4666 
L 3169 4666 
L 3169 4134 
L 1269 4134 
L 1269 2991 
Q 1406 3038 1543 3061 
Q 1681 3084 1819 3084 
Q 2600 3084 3056 2656 
Q 3513 2228 3513 1497 
Q 3513 744 3044 326 
Q 2575 -91 1722 -91 
Q 1428 -91 1123 -41 
Q 819 9 494 109 
L 494 744 
Q 775 591 1075 516 
Q 1375 441 1709 441 
Q 2250 441 2565 725 
Q 2881 1009 2881 1497 
Q 2881 1984 2565 2268 
Q 2250 2553 1709 2553 
Q 1456 2553 1204 2497 
Q 953 2441 691 2322 
L 691 4666 
z
" transform="scale(0.015625)"/>
     </defs>
     <use xlink:href="#DejaVuSans-4c"/>
     <use xlink:href="#DejaVuSans-65" x="53.962891"/>
     <use xlink:href="#DejaVuSans-61" x="115.486328"/>
     <use xlink:href="#DejaVuSans-72" x="176.765625"/>
     <use xlink:href="#DejaVuSans-6e" x="216.128906"/>
     <use xlink:href="#DejaVuSans-69" x="279.507812"/>
     <use xlink:href="#DejaVuSans-6e" x="307.291016"/>
     <use xlink:href="#DejaVuSans-67" x="370.669922"/>
     <use xlink:href="#DejaVuSans-20" x="434.146484"/>
     <use xlink:href="#DejaVuSans-4c" x="465.933594"/>
     <use xlink:href="#DejaVuSans-69" x="521.646484"/>
     <use xlink:href="#DejaVuSans-6e" x="549.429688"/>
     <use xlink:href="#DejaVuSans-65" x="612.808594"/>
     <use xlink:href="#DejaVuSans-61" x="674.332031"/>
     <use xlink:href="#DejaVuSans-72" x="735.611328"/>
     <use xlink:href="#DejaVuSans-41" x="776.724609"/>
     <use xlink:href="#DejaVuSans-64" x="843.382812"/>
     <use xlink:href="#DejaVuSans-76" x="906.859375"/>
     <use xlink:href="#DejaVuSans-65" x="966.039062"/>
     <use xlink:href="#DejaVuSans-63" x="1027.5625"/>
     <use xlink:href="#DejaVuSans-74" x="1082.542969"/>
     <use xlink:href="#DejaVuSans-69" x="1121.751953"/>
     <use xlink:href="#DejaVuSans-6f" x="1149.535156"/>
     <use xlink:href="#DejaVuSans-6e" x="1210.716797"/>
     <use xlink:href="#DejaVuSans-5f" x="1274.095703"/>
     <use xlink:href="#DejaVuSans-31" x="1324.095703"/>
     <use xlink:href="#DejaVuSans-44" x="1387.71875"/>
     <use xlink:href="#DejaVuSans-20" x="1464.720703"/>
     <use xlink:href="#DejaVuSans-66" x="1496.507812"/>
     <use xlink:href="#DejaVuSans-6f" x="1531.712891"/>
     <use xlink:href="#DejaVuSans-72" x="1592.894531"/>
     <use xlink:href="#DejaVuSans-20" x="1634.007812"/>
     <use xlink:href="#DejaVuSans-70" x="1665.794922"/>
     <use xlink:href="#DejaVuSans-61" x="1729.271484"/>
     <use xlink:href="#DejaVuSans-72" x="1790.550781"/>
     <use xlink:href="#DejaVuSans-61" x="1831.664062"/>
     <use xlink:href="#DejaVuSans-6d" x="1892.943359"/>
     <use xlink:href="#DejaVuSans-65" x="1990.355469"/>
     <use xlink:href="#DejaVuSans-74" x="2051.878906"/>
     <use xlink:href="#DejaVuSans-65" x="2091.087891"/>
     <use xlink:href="#DejaVuSans-72" x="2152.611328"/>
     <use xlink:href="#DejaVuSans-20" x="2193.724609"/>
     <use xlink:href="#DejaVuSans-3d" x="2225.511719"/>
     <use xlink:href="#DejaVuSans-20" x="2309.300781"/>
     <use xlink:href="#DejaVuSans-31" x="2341.087891"/>
     <use xlink:href="#DejaVuSans-2e" x="2404.710938"/>
     <use xlink:href="#DejaVuSans-35" x="2436.498047"/>
     <use xlink:href="#DejaVuSans-30" x="2500.121094"/>
    </g>
   </g>
   <g id="legend_1">
    <g id="patch_7">
     <path d="M 64.6 302.584 
L 286.3 302.584 
Q 288.3 302.584 288.3 300.584 
L 288.3 257.505875 
Q 288.3 255.505875 286.3 255.505875 
L 64.6 255.505875 
Q 62.6 255.505875 62.6 257.505875 
L 62.6 300.584 
Q 62.6 302.584 64.6 302.584 
z
" style="fill: #ffffff; opacity: 0.8; stroke: #cccccc; stroke-linejoin: miter"/>
    </g>
    <g id="line2d_18">
     <path d="M 66.6 263.605875 
L 76.6 263.605875 
L 86.6 263.605875 
" style="fill: none; stroke-dasharray: 7.4,3.2; stroke-dashoffset: 0; stroke: #1f77b4; stroke-width: 2"/>
    </g>
    <g id="text_18">
     <!-- predicted $\mu$ and $\pm 3\sigma$ (TVD, Nonlinear) -->
     <g transform="translate(94.6 267.105875) scale(0.1 -0.1)">
      <defs>
       <path id="DejaVuSans-Oblique-3bc" d="M -84 -1331 
L 856 3500 
L 1434 3500 
L 1009 1322 
Q 997 1256 987 1175 
Q 978 1094 978 1013 
Q 978 722 1161 565 
Q 1344 409 1684 409 
Q 2147 409 2431 671 
Q 2716 934 2816 1459 
L 3213 3500 
L 3788 3500 
L 3266 809 
Q 3253 750 3248 706 
Q 3244 663 3244 628 
Q 3244 531 3283 486 
Q 3322 441 3406 441 
Q 3438 441 3492 456 
Q 3547 472 3647 513 
L 3559 50 
Q 3422 -19 3297 -55 
Q 3172 -91 3053 -91 
Q 2847 -91 2730 40 
Q 2613 172 2613 403 
Q 2438 153 2195 31 
Q 1953 -91 1625 -91 
Q 1334 -91 1117 43 
Q 900 178 831 397 
L 494 -1331 
L -84 -1331 
z
" transform="scale(0.015625)"/>
       <path id="DejaVuSans-b1" d="M 2944 4013 
L 2944 2803 
L 4684 2803 
L 4684 2272 
L 2944 2272 
L 2944 1063 
L 2419 1063 
L 2419 2272 
L 678 2272 
L 678 2803 
L 2419 2803 
L 2419 4013 
L 2944 4013 
z
M 678 531 
L 4684 531 
L 4684 0 
L 678 0 
L 678 531 
z
" transform="scale(0.015625)"/>
       <path id="DejaVuSans-33" d="M 2597 2516 
Q 3050 2419 3304 2112 
Q 3559 1806 3559 1356 
Q 3559 666 3084 287 
Q 2609 -91 1734 -91 
Q 1441 -91 1130 -33 
Q 819 25 488 141 
L 488 750 
Q 750 597 1062 519 
Q 1375 441 1716 441 
Q 2309 441 2620 675 
Q 2931 909 2931 1356 
Q 2931 1769 2642 2001 
Q 2353 2234 1838 2234 
L 1294 2234 
L 1294 2753 
L 1863 2753 
Q 2328 2753 2575 2939 
Q 2822 3125 2822 3475 
Q 2822 3834 2567 4026 
Q 2313 4219 1838 4219 
Q 1578 4219 1281 4162 
Q 984 4106 628 3988 
L 628 4550 
Q 988 4650 1302 4700 
Q 1616 4750 1894 4750 
Q 2613 4750 3031 4423 
Q 3450 4097 3450 3541 
Q 3450 3153 3228 2886 
Q 3006 2619 2597 2516 
z
" transform="scale(0.015625)"/>
       <path id="DejaVuSans-Oblique-3c3" d="M 2219 3044 
Q 1744 3044 1422 2700 
Q 1081 2341 969 1747 
Q 844 1119 1044 756 
Q 1241 397 1706 397 
Q 2166 397 2503 759 
Q 2844 1122 2966 1747 
Q 3075 2319 2881 2700 
Q 2700 3044 2219 3044 
z
M 2309 3503 
L 4219 3500 
L 4106 2925 
L 3463 2925 
Q 3706 2438 3575 1747 
Q 3406 888 2884 400 
Q 2359 -91 1609 -91 
Q 856 -91 525 400 
Q 194 888 363 1747 
Q 528 2609 1050 3097 
Q 1484 3503 2309 3503 
z
" transform="scale(0.015625)"/>
       <path id="DejaVuSans-54" d="M -19 4666 
L 3928 4666 
L 3928 4134 
L 2272 4134 
L 2272 0 
L 1638 0 
L 1638 4134 
L -19 4134 
L -19 4666 
z
" transform="scale(0.015625)"/>
       <path id="DejaVuSans-56" d="M 1831 0 
L 50 4666 
L 709 4666 
L 2188 738 
L 3669 4666 
L 4325 4666 
L 2547 0 
L 1831 0 
z
" transform="scale(0.015625)"/>
       <path id="DejaVuSans-4e" d="M 628 4666 
L 1478 4666 
L 3547 763 
L 3547 4666 
L 4159 4666 
L 4159 0 
L 3309 0 
L 1241 3903 
L 1241 0 
L 628 0 
L 628 4666 
z
" transform="scale(0.015625)"/>
       <path id="DejaVuSans-6c" d="M 603 4863 
L 1178 4863 
L 1178 0 
L 603 0 
L 603 4863 
z
" transform="scale(0.015625)"/>
      </defs>
      <use xlink:href="#DejaVuSans-70" transform="translate(0 0.015625)"/>
      <use xlink:href="#DejaVuSans-72" transform="translate(63.476562 0.015625)"/>
      <use xlink:href="#DejaVuSans-65" transform="translate(104.589844 0.015625)"/>
      <use xlink:href="#DejaVuSans-64" transform="translate(166.113281 0.015625)"/>
      <use xlink:href="#DejaVuSans-69" transform="translate(229.589844 0.015625)"/>
      <use xlink:href="#DejaVuSans-63" transform="translate(257.373047 0.015625)"/>
      <use xlink:href="#DejaVuSans-74" transform="translate(312.353516 0.015625)"/>
      <use xlink:href="#DejaVuSans-65" transform="translate(351.5625 0.015625)"/>
      <use xlink:href="#DejaVuSans-64" transform="translate(413.085938 0.015625)"/>
      <use xlink:href="#DejaVuSans-20" transform="translate(476.5625 0.015625)"/>
      <use xlink:href="#DejaVuSans-Oblique-3bc" transform="translate(508.349609 0.015625)"/>
      <use xlink:href="#DejaVuSans-20" transform="translate(571.972656 0.015625)"/>
      <use xlink:href="#DejaVuSans-61" transform="translate(603.759766 0.015625)"/>
      <use xlink:href="#DejaVuSans-6e" transform="translate(665.039062 0.015625)"/>
      <use xlink:href="#DejaVuSans-64" transform="translate(728.417969 0.015625)"/>
      <use xlink:href="#DejaVuSans-20" transform="translate(791.894531 0.015625)"/>
      <use xlink:href="#DejaVuSans-b1" transform="translate(823.681641 0.015625)"/>
      <use xlink:href="#DejaVuSans-33" transform="translate(907.470703 0.015625)"/>
      <use xlink:href="#DejaVuSans-Oblique-3c3" transform="translate(971.09375 0.015625)"/>
      <use xlink:href="#DejaVuSans-20" transform="translate(1034.472656 0.015625)"/>
      <use xlink:href="#DejaVuSans-28" transform="translate(1066.259766 0.015625)"/>
      <use xlink:href="#DejaVuSans-54" transform="translate(1105.273438 0.015625)"/>
      <use xlink:href="#DejaVuSans-56" transform="translate(1166.357422 0.015625)"/>
      <use xlink:href="#DejaVuSans-44" transform="translate(1234.765625 0.015625)"/>
      <use xlink:href="#DejaVuSans-2c" transform="translate(1311.767578 0.015625)"/>
      <use xlink:href="#DejaVuSans-20" transform="translate(1343.554688 0.015625)"/>
      <use xlink:href="#DejaVuSans-4e" transform="translate(1375.341797 0.015625)"/>
      <use xlink:href="#DejaVuSans-6f" transform="translate(1450.146484 0.015625)"/>
      <use xlink:href="#DejaVuSans-6e" transform="translate(1511.328125 0.015625)"/>
      <use xlink:href="#DejaVuSans-6c" transform="translate(1574.707031 0.015625)"/>
      <use xlink:href="#DejaVuSans-69" transform="translate(1602.490234 0.015625)"/>
      <use xlink:href="#DejaVuSans-6e" transform="translate(1630.273438 0.015625)"/>
      <use xlink:href="#DejaVuSans-65" transform="translate(1693.652344 0.015625)"/>
      <use xlink:href="#DejaVuSans-61" transform="translate(1755.175781 0.015625)"/>
      <use xlink:href="#DejaVuSans-72" transform="translate(1816.455078 0.015625)"/>
      <use xlink:href="#DejaVuSans-29" transform="translate(1857.568359 0.015625)"/>
     </g>
    </g>
    <g id="line2d_19">
     <path d="M 66.6 278.305875 
L 76.6 278.305875 
L 86.6 278.305875 
" style="fill: none; stroke-dasharray: 7.4,3.2; stroke-dashoffset: 0; stroke: #ff7f0e; stroke-width: 2"/>
    </g>
    <g id="text_19">
     <!-- predicted $\mu$ and $\pm 3\sigma$ -->
     <g transform="translate(94.6 281.805875) scale(0.1 -0.1)">
      <use xlink:href="#DejaVuSans-70" transform="translate(0 0.015625)"/>
      <use xlink:href="#DejaVuSans-72" transform="translate(63.476562 0.015625)"/>
      <use xlink:href="#DejaVuSans-65" transform="translate(104.589844 0.015625)"/>
      <use xlink:href="#DejaVuSans-64" transform="translate(166.113281 0.015625)"/>
      <use xlink:href="#DejaVuSans-69" transform="translate(229.589844 0.015625)"/>
      <use xlink:href="#DejaVuSans-63" transform="translate(257.373047 0.015625)"/>
      <use xlink:href="#DejaVuSans-74" transform="translate(312.353516 0.015625)"/>
      <use xlink:href="#DejaVuSans-65" transform="translate(351.5625 0.015625)"/>
      <use xlink:href="#DejaVuSans-64" transform="translate(413.085938 0.015625)"/>
      <use xlink:href="#DejaVuSans-20" transform="translate(476.5625 0.015625)"/>
      <use xlink:href="#DejaVuSans-Oblique-3bc" transform="translate(508.349609 0.015625)"/>
      <use xlink:href="#DejaVuSans-20" transform="translate(571.972656 0.015625)"/>
      <use xlink:href="#DejaVuSans-61" transform="translate(603.759766 0.015625)"/>
      <use xlink:href="#DejaVuSans-6e" transform="translate(665.039062 0.015625)"/>
      <use xlink:href="#DejaVuSans-64" transform="translate(728.417969 0.015625)"/>
      <use xlink:href="#DejaVuSans-20" transform="translate(791.894531 0.015625)"/>
      <use xlink:href="#DejaVuSans-b1" transform="translate(823.681641 0.015625)"/>
      <use xlink:href="#DejaVuSans-33" transform="translate(907.470703 0.015625)"/>
      <use xlink:href="#DejaVuSans-Oblique-3c3" transform="translate(971.09375 0.015625)"/>
     </g>
    </g>
    <g id="line2d_20">
     <path d="M 66.6 293.004312 
L 76.6 293.004312 
L 86.6 293.004312 
" style="fill: none; stroke: #008000; stroke-width: 1.5; stroke-linecap: square"/>
    </g>
    <g id="text_20">
     <!-- true -->
     <g transform="translate(94.6 296.504312) scale(0.1 -0.1)">
      <use xlink:href="#DejaVuSans-74"/>
      <use xlink:href="#DejaVuSans-72" x="39.208984"/>
      <use xlink:href="#DejaVuSans-75" x="80.322266"/>
      <use xlink:href="#DejaVuSans-65" x="143.701172"/>
     </g>
    </g>
   </g>
  </g>
 </g>
 <defs>
  <clipPath id="pe990841c05">
   <rect x="57.6" y="41.472" width="357.12" height="266.112"/>
  </clipPath>
 </defs>
</svg>
